# xmcd
#
# Track frame offsets: 
#        150
#        15128
#        33526
#        49239
#        67689
#        88404
#        110132
#        130247
#        148322
#        165137
#        184442
#        200507
#
# Disc length: 2891 seconds
#
# Revision: 0
# Processed by: cddbd v1.5.2PL0 Copyright (c) Steve Scherf et al.
# Submitted via: ExactAudioCopy v1.0b4
#
DISCID=a80b490c
DTITLE=Harper - Stand Together
DYEAR=2010
DGENRE=Blues Rock
TTITLE0=I Never Want
TTITLE1=Looking At You
TTITLE2=We Stand Together
TTITLE3=Love=Peace=Freedom
TTITLE4=You Know What You Got
TTITLE5=No Problem
TTITLE6=Weaker Man
TTITLE7=Not My Brother
TTITLE8=Chill Out
TTITLE9=Take These Arms
TTITLE10=What Are You Gonna Do
TTITLE11=Damn Shame
EXTD=
EXTT0=
EXTT1=
EXTT2=
EXTT3=
EXTT4=
EXTT5=
EXTT6=
EXTT7=
EXTT8=
EXTT9=
EXTT10=
EXTT11=
PLAYORDER=
